# ProBuilder 5.2.4
# https://unity3d.com/unity/features/worldbuilding/probuilder
# 28.11.2025 17:28:40

mtllib ./Tunnel3_(1).mtl
o Tunnel3 (1)

g Tunnel3 (1)
v 0.003187713 3.947522 1.102086
v -0.02649552 3.871935 -6.103515E-07
v -0.4773443 3.960968 -6.103515E-07
v -0.4503667 4.036359 1.113622
v 0.06911965 3.84551 2.203799
v -0.8695509 3.892251 -6.103515E-07
v -0.4124087 3.887676 2.208101
v 0.166358 4.043316 3.281612
v -0.8229401 4.028971 1.139926
v -1.20042 3.701408 -6.103515E-07
v -0.3390286 3.989207 3.266704
v 0.2242719 4.429763 4.332564
v -1.118885 3.890054 1.154666
v -1.470336 3.439283 -6.103515E-07
v -0.8084707 3.891756 2.230928
v -0.3335491 4.311511 4.302192
v 0.1915455 4.70621 5.406797
v -1.375972 3.691372 1.161186
v -1.684563 3.122269 -6.103515E-07
v -1.606303 3.423848 1.154193
v -1.127712 3.735526 2.245303
v -0.7570848 3.892029 3.272614
v -1.420767 3.532845 2.24745
v -1.657375 3.25688 2.238396
v -0.4027294 4.597166 5.350718
v -0.06090291 4.794274 6.497394
v -1.140035 3.713647 3.285049
v -1.48939 3.385797 3.29174
v -1.855556 3.047447 3.270334
v -0.8253851 4.225352 4.290464
v -0.6842139 4.616866 6.435203
v -0.2815976 4.829339 7.620298
v -1.242231 3.942568 4.313563
v -0.8844012 4.351402 5.316126
v -0.8980364 4.65261 7.557741
v -0.2992926 4.688533 8.746413
v -1.630632 3.550393 4.324365
v -1.324487 4.053162 5.327513
v -1.171115 4.390687 6.400805
v -0.8533236 4.549178 8.695303
v -0.2883972 4.379788 9.834659
v -1.380499 4.45406 7.521561
v -1.614457 4.232029 6.406338
v -1.744998 3.718626 5.334804
v -2.053602 3.173091 4.309586
v -0.757553 4.244564 9.794438
v -0.1986114 4.052463 10.90187
v -1.30792 4.290493 8.65749
v -1.80953 4.209252 7.516532
v -2.09584 2.752892 3.255136
v -1.854008 2.861106 2.214384
v -2.415853 2.785553 4.267856
v -2.150128 3.294538 5.323018
v -1.994687 3.914611 6.406744
v -2.393054 3.530582 6.39306
v -2.200534 3.894246 7.512684
v -1.716897 4.021646 8.648602
v -1.161823 4.087218 9.772949
v -0.5922279 3.994571 10.87966
v -0.0264955 3.871935 12
v -0.4773443 3.960968 12
v -0.9272249 3.841897 10.87283
v -0.8695509 3.89225 12
v -1.528624 3.866365 9.768023
v -1.240805 3.640561 10.87363
v -1.20042 3.701408 12
v -2.096763 3.69962 8.63763
v -1.5526 3.399573 10.8688
v -1.470336 3.439283 12
v -1.844244 3.580044 9.756395
v -2.592218 3.561953 7.492458
v -1.858913 3.065781 10.84649
v -1.684563 3.122269 12
v -2.176387 3.243832 9.732305
v -2.471593 3.384256 8.614719
v -2.092027 2.757804 10.83711
v -1.848689 2.768133 12
v -2.266722 2.431566 10.83709
v -2.720842 2.559712 9.708044
v -2.531326 2.909936 9.708262
v -3.106257 2.694416 8.583872
v -2.826555 3.073109 8.593641
v -2.961929 3.219826 7.476088
v -1.848689 2.768133 -6.103515E-07
v -1.783253 3.03698 1.126326
v -1.960867 2.392286 -6.103515E-07
v -1.919504 2.61043 1.099868
v -1.998184 1.998091 -6.103515E-07
v -2.012884 2.46349 2.192777
v -1.975886 2.128719 1.087576
v -1.985473 1.557055 -6.103515E-07
v -2.267385 2.422128 3.241641
v -1.977961 1.58961 1.088848
v -1.940679 1.09709 -6.103515E-07
v -2.097213 2.059935 2.187473
v -1.940679 1.097437 1.090909
v -1.856927 0.6698325 -6.103515E-07
v -2.097256 1.600933 2.188044
v -2.34918 2.039329 3.240425
v -1.856927 0.6705533 1.090909
v -1.670603 0.3301305 -6.103515E-07
v -1.670603 0.3569678 1.090909
v -2.007885 1.114394 2.178493
v -1.898301 0.7213791 2.17488
v -1.702676 0.4535559 2.176409
v -2.332285 1.578933 3.235252
v -2.104735 0.6919543 3.229419
v -1.862116 0.3688405 3.234001
v -2.230416 1.102627 3.227674
v -2.333798 0.7155395 4.270565
v -1.96733 0.4192615 4.29111
v -3.170758 2.272631 8.595012
v -2.782587 2.149594 9.720705
v -3.107211 1.794846 8.594663
v -2.731809 1.670819 9.722913
v -2.97113 1.30149 8.593115
v -2.599125 1.180428 9.724023
v -2.697959 0.8737135 8.608832
v -2.433616 0.7486718 9.728072
v -2.347924 2.042837 10.85027
v -2.336183 1.58325 10.85985
v -1.960867 2.392286 12
v -1.998184 1.99809 12
v -1.985473 1.557055 12
v -2.231512 1.104732 10.86274
v -1.940679 1.097089 12
v -2.107844 0.6890963 10.86697
v -1.856927 0.6698318 12
v -2.103856 0.4410205 9.746881
v -2.310121 0.6119009 8.626772
v -1.893106 0.3552377 10.87173
v -1.670603 0.3301303 12
v -1.338516 0.1180331 -6.103515E-07
v -1.338516 0.2030331 1.090909
v -0.9086987 0.01469681 -6.103515E-07
v -1.347067 0.3359935 2.178192
v -0.90715 0.1914085 1.090909
v -0.4460698 -0.01433487 -6.103515E-07
v -1.38863 0.2295151 3.249953
v -0.4219742 0.279153 1.090909
v 0.0008912181 -0.003546142 -6.103515E-07
v -0.8585731 0.3573087 2.181805
v -1.438778 0.2259834 4.31216
v -2.0333 0.4715343 5.347858
v 0.06807554 0.407204 1.090909
v 0.4460699 0.01433441 -6.103515E-07
v -0.3364116 0.4466048 2.181817
v -0.8091037 0.2453676 3.26347
v 0.5740251 0.4620851 1.090909
v 0.9065222 0.08766266 -6.103515E-07
v 0.1864758 0.5443692 2.181817
v -0.2110542 0.3484601 3.27162
v -0.794934 0.1869636 4.33274
v -1.477279 0.316445 5.37079
v 1.073613 0.5328373 1.090909
v 1.334247 0.2335731 -6.103515E-07
v 0.7167107 0.5962381 2.181817
v 0.339085 0.4783972 3.272726
v -0.1170143 0.2713501 4.351179
v 1.433967 0.6212996 1.090909
v 1.674158 0.4648086 -6.103515E-07
v 1.254387 0.6364566 2.181817
v 0.8881667 0.5001756 3.272726
v 1.722028 0.7758359 1.090909
v 1.866944 0.783983 -6.103515E-07
v 1.928449 1.005574 1.090909
v 1.632193 0.7488342 2.181817
v 1.978835 0.9079295 2.181817
v 2.186743 1.134847 2.181817
v 1.435992 0.5202852 3.272726
v 0.5013072 0.2916946 4.361944
v 2.166228 0.7227458 3.272726
v 2.443127 0.9489638 3.272726
v 1.820162 0.5832936 3.272726
v 1.065141 0.3035078 4.363635
v 2.333638 0.585948 4.363635
v 2.594801 0.8541159 4.363635
v 1.993163 0.4245155 4.363635
v 1.615386 0.2963675 4.363635
v 2.460596 0.5737886 5.454544
v 2.697659 0.8707118 5.454544
v 2.136309 0.3507358 5.454544
v 1.770381 0.1994345 5.454544
v 1.222432 0.1677367 5.452432
v 0.6067805 0.1905544 5.441218
v 2.460596 0.6074084 6.545453
v 2.697659 0.8996313 6.545453
v 2.136309 0.3872377 6.545453
v 1.754952 0.2357504 6.542286
v 1.139148 0.1995213 6.529358
v 2.333638 0.6054921 7.636362
v 2.594801 0.8967186 7.636362
v 1.993163 0.38603 7.636362
v 1.605501 0.2391321 7.634373
v 2.166228 0.5719911 8.72727
v 2.443127 0.8680946 8.72727
v 1.820162 0.3482213 8.72727
v 1.978835 0.5431546 9.81818
v 2.186743 0.8495872 9.81818
v 0.4724258 0.266496 6.509572
v 0.9832353 0.2554697 7.622611
v 1.435992 0.1987366 8.72727
v 1.632193 0.3125741 9.81818
v 1.722028 0.5271951 10.90909
v 1.928449 0.8443744 10.90909
v 1.674158 0.4648083 12
v 1.334247 0.233573 12
v 1.433967 0.2892612 10.90909
v 0.9065222 0.0876625 12
v 1.073613 0.1250584 10.90909
v 0.4460699 0.01433411 12
v 1.254387 0.1580881 9.81818
v 0.5740252 0.04982773 10.90909
v 0.0008912229 -0.0035466 12
v 0.7167107 0.1204097 9.81818
v 0.0680756 0.03768356 10.90909
v -0.4460698 -0.01433502 12
v 0.8757405 0.1677643 8.725184
v -0.4290515 0.03269608 10.9079
v -0.9086987 0.01469665 12
v 0.1706378 0.1171228 9.815521
v 0.2600388 0.2581322 8.714
v -0.9624776 0.05719925 10.8998
v -1.338516 0.118033 12
v -0.4185634 0.1231599 9.804388
v 0.3157085 0.4028186 7.603512
v -1.47127 0.1521133 10.8868
v -0.3936674 0.4002112 8.695508
v -1.047173 0.1671112 9.786505
v -1.636187 0.2424895 9.766017
v -0.3826904 0.5417084 7.579304
v -1.085635 0.4774564 8.671694
v -1.756226 0.5472482 8.647565
v -0.2301857 0.415673 6.484819
v -1.114773 0.6411676 7.551772
v -0.06141173 0.195068 5.422244
v -1.805738 0.6778737 7.526244
v -0.9725836 0.5035527 6.456769
v -0.7864024 0.2449895 5.397117
v -1.662791 0.5489219 6.430555
v -2.373657 0.7594134 7.506539
v -2.207035 0.592379 6.410008
v -2.767787 0.9834574 7.492136
v 1.901844 1.163722 -6.103515E-07
v 2.03475 1.294291 1.090909
v 1.849381 1.573499 -6.103515E-07
v 2.294461 1.408486 2.181817
v 2.119358 1.617937 1.090909
v 1.79815 1.985161 -6.103515E-07
v 2.548999 1.25172 3.272726
v 2.142065 1.988447 1.090909
v 1.792953 2.380506 -6.103515E-07
v 2.380404 1.70396 2.181817
v 2.747508 1.21002 4.363635
v 2.118474 2.392062 1.091308
v 1.779515 2.769774 -6.103515E-07
v 2.403095 2.030851 2.181817
v 2.632673 1.596091 3.272726
v 2.819737 1.220613 5.454544
v 2.07439 2.746161 1.093235
v 1.706164 3.134959 -6.103515E-07
v 2.825485 1.590789 4.363635
v 2.379389 2.408134 2.182078
v 2.655372 1.985285 3.272726
v 2.827288 1.268277 6.545453
v 1.970298 3.098774 1.095351
v 1.523497 3.453197 -6.103515E-07
v 2.902682 1.604603 5.454544
v 2.845995 1.986418 4.363635
v 2.334947 2.803871 2.183875
v 2.635848 2.428357 3.272735
v 2.747885 1.24989 7.636565
v 1.766489 3.473435 1.096349
v 1.238408 3.651395 -6.103515E-07
v 1.409574 3.699338 1.096349
v 2.229014 3.252383 2.186035
v 2.597629 2.883841 3.273995
v 2.831799 2.418805 4.363635
v 1.947287 3.792403 2.187258
v 2.419643 3.37545 3.276547
v 1.579708 4.064493 2.187278
v 0.9864454 3.796856 1.095889
v 2.1369 3.980486 3.278167
v 1.760402 4.319036 3.278745
v 2.752976 2.943394 4.364315
v 2.921512 2.060397 5.454544
v 2.293991 4.063534 4.370724
v 1.894216 4.575883 4.370719
v 2.586688 3.46296 4.367254
v 2.905313 2.554532 5.454575
v 2.92658 1.701215 6.545453
v 2.382489 4.380962 5.464158
v 1.972056 4.906717 5.458112
v 2.681539 3.726636 5.460827
v 2.848044 3.130792 5.455829
v 2.914824 2.216881 6.545998
v 2.828992 1.686616 7.638059
v 2.300518 4.75071 6.564116
v 1.890042 5.193839 6.566062
v 2.876519 2.783074 6.547831
v 2.612176 4.078025 6.557345
v 2.797299 3.425098 6.550819
v 2.045429 4.766795 7.663714
v 1.620338 5.142799 7.668793
v 2.791644 2.227886 7.640813
v 2.733626 2.818524 7.644365
v 2.38331 4.168197 7.656517
v 2.607148 3.493596 7.648752
v 1.864412 4.496145 8.754924
v 1.431966 4.881627 8.760063
v 2.214701 3.937342 8.747616
v 2.454891 3.282513 8.739802
v 2.535653 2.646077 8.735444
v 2.599634 2.100076 8.731856
v 1.760317 4.187219 9.838862
v 1.330165 4.621625 9.843967
v 2.110769 3.58708 9.831617
v 2.268119 3.022886 9.825062
v 2.339362 2.459269 9.821615
v 1.658258 3.682826 10.92335
v 1.246391 3.999822 10.92783
v 1.523497 3.453196 12
v 1.706164 3.134959 12
v 1.912145 3.165045 10.91798
v 1.779515 2.769773 12
v 2.055228 2.784707 10.91249
v 1.792953 2.380506 12
v 2.113928 2.389057 10.90972
v 1.79815 1.985161 12
v 2.142065 1.985285 10.90909
v 1.849381 1.573498 12
v 2.3895 2.000631 9.819321
v 2.119358 1.59138 10.90909
v 1.901844 1.163722 12
v 2.38009 1.591854 9.818217
v 2.03475 1.210428 10.90909
v 1.866944 0.7839828 12
v 2.618524 1.616703 8.729057
v 2.294461 1.210459 9.81818
v 2.546814 1.222138 8.727509
v 0.8746293 3.719113 -6.103515E-07
v 0.4424987 3.75619 -6.103515E-07
v 0.505381 3.855089 1.099278
v 1.127783 4.105994 2.191888
v 0.6004746 3.973904 2.203353
v 1.304367 4.395603 3.278922
v 0.7463894 4.270196 3.28201
v 1.395307 4.735044 4.363444
v 0.8434849 4.680765 4.348147
v 1.467702 5.093132 5.446711
v 0.8611508 5.021808 5.432822
v 1.385203 5.296169 6.560338
v 0.7339565 5.130744 6.538352
v 1.110181 5.228889 7.668058
v 0.461548 5.094836 7.646587
v 0.9289024 5.022866 8.763433
v 0.3536368 4.936401 8.763868
v 0.8281495 4.663518 9.847807
v 0.2659268 4.567465 9.850527
v 0.7639773 4.13056 10.93139
v 0.2450521 4.143919 10.92694
v 1.238408 3.651394 12
v 0.8746293 3.719113 12
v 0.4424987 3.756189 12
v -2.492837 2.845996 4.78902
v -2.569821 2.90644 5.310184
v -2.686062 3.012751 5.844449
v -2.802303 3.119063 6.378713
v -2.882116 3.169445 6.927401
v -3.221705 2.791131 7.477121
v -3.091817 3.005479 7.476604
v -2.582548 2.404201 4.261705
v -2.499201 2.594877 4.264781
v -2.635148 1.9887 4.262852
v -2.608848 2.19645 4.262279
v -2.605043 1.543211 4.259158
v -2.620096 1.765955 4.261005
v -2.502477 1.110229 4.264298
v -2.55376 1.32672 4.261728
v -2.418138 0.9128842 4.267432
v -3.253662 2.553198 7.482131
v -3.285619 2.315264 7.487142
v -2.415733 0.7522519 5.328067
v -2.374765 0.7338957 4.799316
v -2.588557 0.8301437 6.394818
v -2.502145 0.7911978 5.861443
v -3.246846 2.069124 7.485227
v -3.208074 1.822985 7.483313
v -3.122661 1.58548 7.483256
v -3.037248 1.347975 7.483199
v -2.902517 1.165716 7.487668
v -2.678172 0.9068006 6.943477

vt 0.2731866 2.999822
vt 0.0005081239 2.999821
vt 0.0005107212 2.906082
vt 0.2731892 2.906083
vt 0.545865 2.999823
vt 0.0005133186 2.812343
vt 0.5458677 2.906083
vt 0.8185435 2.999824
vt 0.2731918 2.812344
vt 0.0005156798 2.718604
vt 0.8185462 2.906084
vt 1.091222 2.999825
vt 0.2731942 2.718605
vt 0.000518041 2.624865
vt 0.5458703 2.812344
vt 1.091225 2.906085
vt 1.3639 2.999825
vt 0.2731965 2.624865
vt 0.0005201661 2.531126
vt 0.2731987 2.531126
vt 0.5458727 2.718605
vt 0.8185488 2.812345
vt 0.545875 2.624866
vt 0.5458773 2.531127
vt 1.363903 2.906086
vt 1.636579 2.999826
vt 0.8185512 2.718606
vt 0.8185535 2.624867
vt 0.8185558 2.531128
vt 1.091227 2.812346
vt 1.636582 2.906087
vt 1.909257 2.999827
vt 1.09123 2.718607
vt 1.363906 2.812347
vt 1.90926 2.906088
vt 2.181936 2.999828
vt 1.091232 2.624868
vt 1.363908 2.718608
vt 1.636584 2.812348
vt 2.181939 2.906089
vt 2.454614 2.999829
vt 1.909263 2.812349
vt 1.636587 2.718609
vt 1.363911 2.624869
vt 1.091234 2.531128
vt 2.454617 2.90609
vt 2.727293 2.99983
vt 2.181941 2.81235
vt 1.909265 2.71861
vt 0.818558 2.437388
vt 0.5458794 2.437388
vt 1.091237 2.437389
vt 1.363913 2.531129
vt 1.636589 2.624869
vt 1.636592 2.53113
vt 1.909267 2.62487
vt 2.181944 2.71861
vt 2.454619 2.81235
vt 2.727295 2.906091
vt 2.999971 2.999831
vt 2.999974 2.906091
vt 2.727298 2.812351
vt 2.999977 2.812352
vt 2.454622 2.718611
vt 2.727301 2.718612
vt 2.999979 2.718613
vt 2.181946 2.624871
vt 2.727303 2.624872
vt 2.999981 2.624873
vt 2.454624 2.624871
vt 1.90927 2.531131
vt 2.727306 2.531133
vt 2.999984 2.531134
vt 2.454627 2.531132
vt 2.181949 2.531132
vt 2.727308 2.437394
vt 2.999986 2.437395
vt 2.72731 2.343654
vt 2.454632 2.343654
vt 2.454629 2.437393
vt 2.181953 2.343653
vt 2.181951 2.437392
vt 1.909272 2.437391
vt 0.0005222912 2.437387
vt 0.2732009 2.437387
vt 0.0005244163 2.343648
vt 0.273203 2.343648
vt 0.0005263053 2.249908
vt 0.5458816 2.343649
vt 0.2732049 2.249909
vt 0.0005281943 2.156169
vt 0.8185601 2.34365
vt 0.2732068 2.15617
vt 0.0005298472 2.06243
vt 0.5458835 2.24991
vt 0.2732085 2.062431
vt 0.0005315 1.968691
vt 0.5458854 2.15617
vt 0.8185621 2.24991
vt 0.2732101 1.968692
vt 0.0005331528 1.874952
vt 0.2732118 1.874953
vt 0.5458871 2.062431
vt 0.5458887 1.968692
vt 0.5458904 1.874953
vt 0.8185641 2.156171
vt 0.8185673 1.968693
vt 0.8185691 1.874954
vt 0.8185657 2.062432
vt 1.091246 1.968693
vt 1.091248 1.874954
vt 2.181955 2.249914
vt 2.454634 2.249914
vt 2.181957 2.156175
vt 2.454636 2.156175
vt 2.181959 2.062435
vt 2.454638 2.062436
vt 2.18196 1.968696
vt 2.454639 1.968696
vt 2.727312 2.249915
vt 2.727314 2.156176
vt 2.999989 2.343655
vt 2.999991 2.249916
vt 2.999993 2.156176
vt 2.727316 2.062436
vt 2.999995 2.062437
vt 2.727318 1.968697
vt 2.999996 1.968697
vt 2.454641 1.874957
vt 2.181962 1.874956
vt 2.727319 1.874957
vt 2.999998 1.874958
vt 0.0005343335 1.781213
vt 0.273213 1.781214
vt 0.0005357502 1.687474
vt 0.5458916 1.781214
vt 0.2732145 1.687474
vt 0.0005366948 1.593735
vt 0.8185703 1.781214
vt 0.2732154 1.593735
vt 0.0005378753 1.499996
vt 0.5458932 1.687475
vt 1.091249 1.781215
vt 1.363926 1.874955
vt 0.2732166 1.499996
vt 0.0005388198 1.406257
vt 0.5458941 1.593736
vt 0.8185719 1.687475
vt 0.2732176 1.406257
vt 0.0005397643 1.312518
vt 0.5458953 1.499997
vt 0.8185729 1.593736
vt 1.091251 1.687476
vt 1.363928 1.781215
vt 0.2732185 1.312518
vt 0.0005407088 1.218778
vt 0.5458964 1.406257
vt 0.8185741 1.499997
vt 1.091252 1.593737
vt 0.2732195 1.218779
vt 0.0005416534 1.125039
vt 0.5458973 1.312518
vt 0.8185751 1.406258
vt 0.2732204 1.125039
vt 0.0005425978 1.0313
vt 0.2732214 1.0313
vt 0.5458983 1.218779
vt 0.5458992 1.12504
vt 0.5459002 1.0313
vt 0.8185761 1.312519
vt 1.091253 1.499997
vt 0.818578 1.12504
vt 0.818579 1.031301
vt 0.8185771 1.218779
vt 1.091254 1.406258
vt 1.091257 1.12504
vt 1.091258 1.031301
vt 1.091256 1.218779
vt 1.091255 1.312519
vt 1.363936 1.12504
vt 1.363937 1.031301
vt 1.363935 1.21878
vt 1.363934 1.312519
vt 1.363933 1.406259
vt 1.363932 1.499998
vt 1.636614 1.125041
vt 1.636615 1.031301
vt 1.636613 1.21878
vt 1.636612 1.31252
vt 1.636611 1.406259
vt 1.909293 1.125041
vt 1.909294 1.031301
vt 1.909292 1.21878
vt 1.909291 1.31252
vt 2.181972 1.125041
vt 2.181973 1.031302
vt 2.181971 1.218781
vt 2.454651 1.125042
vt 2.454652 1.031302
vt 1.63661 1.499998
vt 1.90929 1.406259
vt 2.18197 1.31252
vt 2.45465 1.218781
vt 2.727329 1.125042
vt 2.727331 1.031302
vt 3.000008 1.125042
vt 3.000007 1.218782
vt 2.727328 1.218781
vt 3.000006 1.312521
vt 2.727328 1.312521
vt 3.000005 1.406261
vt 2.454649 1.312521
vt 2.727326 1.40626
vt 3.000004 1.5
vt 2.454648 1.40626
vt 2.727325 1.5
vt 3.000003 1.59374
vt 2.181969 1.40626
vt 2.727324 1.593739
vt 3.000001 1.687479
vt 2.454646 1.499999
vt 2.181968 1.499999
vt 2.727323 1.687479
vt 3 1.781219
vt 2.454645 1.593739
vt 1.909289 1.499999
vt 2.727321 1.781218
vt 2.181967 1.593738
vt 2.454644 1.687478
vt 2.454642 1.781217
vt 1.909288 1.593738
vt 2.181965 1.687478
vt 2.181963 1.781217
vt 1.636609 1.593738
vt 1.909287 1.687477
vt 1.36393 1.593737
vt 1.909285 1.781217
vt 1.636608 1.687477
vt 1.363929 1.687476
vt 1.636606 1.781216
vt 1.909284 1.874956
vt 1.636605 1.874955
vt 1.909282 1.968695
vt 0.0005433061 0.9375607
vt 0.2732221 0.9375609
vt 0.0005433061 0.8438215
vt 0.5459009 0.9375611
vt 0.2732222 0.8438217
vt 0.0005440145 0.7500824
vt 0.8185797 0.9375614
vt 0.2732229 0.7500826
vt 0.0005444868 0.656343
vt 0.5459011 0.8438219
vt 1.091259 0.9375616
vt 0.2732234 0.6563432
vt 0.0005444868 0.562604
vt 0.5459018 0.7500828
vt 0.8185799 0.8438221
vt 1.363937 0.9375619
vt 0.2732234 0.562604
vt 0.000544959 0.4688647
vt 1.091259 0.8438224
vt 0.5459023 0.6563433
vt 0.8185806 0.750083
vt 1.636616 0.9375622
vt 0.2732238 0.4688647
vt 0.000544959 0.3751254
vt 1.363938 0.8438226
vt 1.091259 0.7500831
vt 0.5459023 0.5626041
vt 0.8185811 0.6563435
vt 1.909295 0.9375625
vt 0.2732239 0.3751255
vt 0.0005451952 0.2813862
vt 0.2732241 0.2813862
vt 0.5459027 0.4688648
vt 0.8185812 0.5626042
vt 1.09126 0.6563436
vt 0.5459028 0.3751256
vt 0.8185816 0.4688649
vt 0.5459031 0.2813863
vt 0.2732241 0.1876469
vt 0.8185818 0.3751257
vt 0.8185821 0.2813863
vt 1.09126 0.5626044
vt 1.363938 0.7500833
vt 1.091261 0.3751258
vt 1.091261 0.2813864
vt 1.091261 0.468865
vt 1.363939 0.6563438
vt 1.636616 0.8438228
vt 1.36394 0.3751258
vt 1.36394 0.2813864
vt 1.36394 0.4688652
vt 1.363939 0.5626045
vt 1.636617 0.7500835
vt 1.909295 0.8438231
vt 1.636619 0.3751259
vt 1.636619 0.2813865
vt 1.636618 0.6563439
vt 1.636618 0.4688653
vt 1.636618 0.5626047
vt 1.909298 0.375126
vt 1.909298 0.2813866
vt 1.909296 0.7500837
vt 1.909297 0.6563441
vt 1.909297 0.4688654
vt 1.909297 0.5626048
vt 2.181977 0.3751261
vt 2.181977 0.2813866
vt 2.181976 0.4688655
vt 2.181976 0.5626049
vt 2.181975 0.6563443
vt 2.181975 0.7500838
vt 2.454656 0.3751261
vt 2.454656 0.2813866
vt 2.454655 0.4688656
vt 2.454654 0.562605
vt 2.454654 0.6563444
vt 2.727334 0.3751262
vt 2.727334 0.2813867
vt 3.000013 0.3751263
vt 3.000013 0.4688658
vt 2.727334 0.4688657
vt 3.000012 0.5626053
vt 2.727334 0.5626051
vt 3.000012 0.6563448
vt 2.727333 0.6563446
vt 3.000011 0.7500843
vt 2.727333 0.7500841
vt 3.000011 0.8438238
vt 2.454654 0.7500839
vt 2.727332 0.8438236
vt 3.00001 0.9375634
vt 2.454653 0.8438234
vt 2.727331 0.9375632
vt 3.000009 1.031303
vt 2.181974 0.8438233
vt 2.454652 0.9375629
vt 2.181973 0.9375627
vt 0.0005451952 0.1876468
vt 0.000544959 0.09390764
vt 0.2732239 0.09390764
vt 0.000544959 0.0001693746
vt 0.2732239 0.0001693746
vt 0.5459031 0.1876469
vt 0.5459028 0.09390764
vt 0.5459029 0.0001693746
vt 0.8185821 0.1876469
vt 0.8185818 0.09390764
vt 0.8185819 0.0001693746
vt 1.091261 0.187647
vt 1.091261 0.09390764
vt 1.091261 0.0001693746
vt 1.36394 0.187647
vt 1.36394 0.09390764
vt 1.36394 0.0001693746
vt 1.636619 0.187647
vt 1.636619 0.09390764
vt 1.636619 0.0001693746
vt 1.909298 0.187647
vt 1.909298 0.09390764
vt 1.909298 0.0001693746
vt 2.181977 0.1876471
vt 2.181977 0.09390764
vt 2.181977 0.0001693746
vt 2.454656 0.1876471
vt 2.454656 0.09390764
vt 2.454656 0.0001693746
vt 2.727334 0.1876471
vt 2.727334 0.09390764
vt 2.727334 0.0001693746
vt 3.000013 0.2813867
vt 3.000014 0.1876471
vt 3.000014 0.09390764
vt 3.000014 0.0001693746
vt 1.227576 2.437389
vt 1.363915 2.43739
vt 1.500254 2.43739
vt 1.636594 2.437391
vt 1.772933 2.437391
vt 1.909275 2.343652
vt 1.909273 2.390522
vt 1.091239 2.34365
vt 1.091238 2.39052
vt 1.091241 2.249911
vt 1.09124 2.296781
vt 1.091243 2.156172
vt 1.091242 2.203042
vt 1.091244 2.062433
vt 1.091244 2.109302
vt 1.091245 2.015563
vt 1.909276 2.296783
vt 1.909276 2.249913
vt 1.363925 1.968694
vt 1.227585 1.968694
vt 1.636603 1.968695
vt 1.500264 1.968694
vt 1.909278 2.203043
vt 1.909279 2.156174
vt 1.909279 2.109304
vt 1.90928 2.062434
vt 1.909281 2.015565
vt 1.772942 1.968695

vn -0.1040747 -0.9944299 0.01666062
vn -0.2013206 -0.9763058 0.07935299
vn -0.009849207 -0.9976278 0.06813021
vn -0.05581829 -0.9982406 -0.01999931
vn 0.07831583 -0.9960581 0.04165188
vn 0.3062125 -0.9478176 0.08874527
vn -0.02178973 -0.9997384 -0.006952298
vn 0.2061803 -0.9499429 0.2347296
vn 0.2333934 -0.9723496 -0.007983525
vn 0.5850156 -0.8065838 0.08473106
vn 0.1444982 -0.9719321 0.185656
vn 0.2658465 -0.9212036 0.2840944
vn 0.5348985 -0.8449053 -0.004326053
vn 0.7468176 -0.6607942 0.07492927
vn 0.2453504 -0.9677226 -0.05758549
vn 0.1750981 -0.9436363 0.2808757
vn 0.2879985 -0.9379246 0.1932727
vn 0.6941819 -0.7197208 0.01065202
vn 0.8539247 -0.5159499 0.06788503
vn 0.841574 -0.5397464 0.02066765
vn 0.5067081 -0.8597732 -0.06353739
vn 0.3200621 -0.9356632 0.1486426
vn 0.6821951 -0.7287539 -0.0593935
vn 0.8277988 -0.5609697 -0.007885518
vn 0.2809827 -0.943022 0.1782081
vn 0.305706 -0.9461346 0.1066452
vn 0.560393 -0.8203658 0.11384
vn 0.6920195 -0.7169971 0.08381023
vn 0.7364357 -0.6643325 0.1277679
vn 0.38325 -0.893148 0.2353849
vn 0.3436548 -0.933408 0.1032038
vn 0.3090163 -0.950994 -0.01093067
vn 0.6292987 -0.7561591 0.1794618
vn 0.4973858 -0.8552465 0.1454678
vn 0.3302076 -0.9439057 -0.002220021
vn 0.304615 -0.9335958 -0.1887023
vn 0.6653659 -0.7209257 0.1937892
vn 0.5699693 -0.7969617 0.1999678
vn 0.3962274 -0.906588 0.1452653
vn 0.3686618 -0.9090462 -0.194225
vn 0.2844141 -0.9136882 -0.2903145
vn 0.4340102 -0.9007444 -0.01716667
vn 0.5056906 -0.843621 0.180501
vn 0.6495872 -0.7233269 0.2341681
vn 0.6887079 -0.6980966 0.1958127
vn 0.3266034 -0.9071398 -0.2653819
vn 0.1128952 -0.9604401 -0.254577
vn 0.4971321 -0.8451518 -0.196413
vn 0.5714529 -0.8194139 -0.04474701
vn 0.8149307 -0.5424925 0.2039356
vn 0.9013444 -0.4274506 0.06974474
vn 0.7647863 -0.5996023 0.2357521
vn 0.6807056 -0.6969402 0.2256419
vn 0.6550256 -0.7294684 0.1970209
vn 0.6712115 -0.7080539 0.2193961
vn 0.6462861 -0.7622376 -0.03616788
vn 0.5838482 -0.787792 -0.1962269
vn 0.4433722 -0.8617626 -0.2465489
vn 0.2389865 -0.9551704 -0.1747427
vn -0.1310987 -0.9851811 -0.1105953
vn 0.0517966 -0.9985607 -0.01391983
vn 0.4439002 -0.8837714 -0.1479888
vn 0.3523516 -0.9354557 0.0277662
vn 0.5794235 -0.7734025 -0.2571321
vn 0.5746258 -0.8063282 -0.1401425
vn 0.5798797 -0.8145928 0.01334685
vn 0.6404781 -0.7404044 -0.2039341
vn 0.6792867 -0.7176387 -0.1535067
vn 0.7416983 -0.6692399 -0.04473829
vn 0.6594306 -0.7039813 -0.2637454
vn 0.6655226 -0.7460878 -0.02079801
vn 0.7561243 -0.6232212 -0.1996784
vn 0.8373679 -0.5338423 -0.1175897
vn 0.6798623 -0.6764687 -0.2831562
vn 0.653954 -0.7242769 -0.2185569
vn 0.8264204 -0.4958141 -0.266829
vn 0.897469 -0.3932485 -0.1997623
vn 0.9020667 -0.3006912 -0.3096134
vn 0.8819657 -0.3003139 -0.3632465
vn 0.7540987 -0.5691668 -0.3276954
vn 0.9085382 -0.346931 -0.2328032
vn 0.7320467 -0.6429076 -0.2253383
vn 0.7401185 -0.6694753 -0.06346232
vn 0.934939 -0.3535175 0.03023864
vn 0.9316492 -0.363035 0.01533984
vn 0.980587 -0.1960843 -2.03544E-05
vn 0.9755687 -0.2181911 0.02566011
vn 0.9990999 -0.03826642 -0.01830692
vn 0.9478352 -0.2907879 0.1305788
vn 0.9968178 -0.06741681 0.04253484
vn 0.998421 0.05474908 -0.01257687
vn 0.9183844 -0.3111258 0.2444806
vn 0.9979275 0.03913517 0.05107866
vn 0.9902189 0.1395004 -0.002481223
vn 0.9806884 -0.1031657 0.166154
vn 0.9884814 0.1472335 0.03502479
vn 0.9401698 0.3407061 -0.0002084514
vn 0.9839552 0.07949572 0.1597263
vn 0.9658648 -0.07582013 0.2477022
vn 0.9321123 0.3620046 0.01092901
vn 0.7243114 0.6893311 -0.01399341
vn 0.6736443 0.7382072 -0.0354046
vn 0.9679879 0.2152783 0.1290532
vn 0.8992758 0.4263429 0.09764577
vn 0.5981331 0.8001155 0.0452975
vn 0.9637378 0.1204031 0.2381437
vn 0.8699111 0.4576719 0.1838236
vn 0.542716 0.8347456 0.09305433
vn 0.94112 0.2566532 0.2200507
vn 0.7660753 0.6342738 0.1040454
vn 0.4830246 0.8756019 0.002929619
vn 0.9762747 -0.00648476 -0.2164387
vn 0.937848 -0.02937203 -0.3458011
vn 0.960426 0.2052734 -0.1882678
vn 0.9372373 0.1652033 -0.3070734
vn 0.8961354 0.4200009 -0.1433202
vn 0.9124004 0.315268 -0.2610202
vn 0.7256414 0.6866488 -0.04424841
vn 0.8131245 0.559333 -0.1611681
vn 0.9448147 -0.06913067 -0.3202282
vn 0.9463242 0.1179011 -0.3009484
vn 0.940558 -0.2130283 -0.2645175
vn 0.95555 -0.03362469 -0.2929055
vn 0.9559677 0.08832732 -0.2798645
vn 0.9358805 0.2343094 -0.2631098
vn 0.9581453 0.1632159 -0.2351982
vn 0.8830746 0.4243407 -0.2002853
vn 0.9168334 0.350555 -0.1911222
vn 0.5410681 0.8409701 0.003812821
vn 0.3657861 0.9275208 0.07684926
vn 0.6615149 0.744458 -0.09044527
vn 0.7045829 0.7009515 -0.1105891
vn 0.3596032 0.9310961 -0.061202
vn 0.2394053 0.9655873 -0.1016189
vn 0.09621323 0.9855728 -0.1392451
vn 0.1416858 0.9898676 -0.00933833
vn -0.05340722 0.9854845 -0.1611456
vn -0.0394254 0.9715118 -0.2336889
vn 0.1335232 0.9896219 0.05310456
vn -0.1823551 0.9617767 -0.2042847
vn -0.0847142 0.9423418 -0.3237522
vn -0.1055557 0.9942222 -0.019499
vn 0.1844871 0.9826042 -0.02129354
vn 0.4454013 0.8950523 -0.02233827
vn -0.1594961 0.9597079 -0.231348
vn -0.1079197 0.9265989 -0.3602329
vn -0.1852025 0.9826615 -0.008739738
vn -0.08870129 0.9932719 0.07445172
vn -0.1212242 0.9638596 -0.237233
vn -0.2232475 0.9133916 -0.3404062
vn -0.1478299 0.9889605 -0.01017207
vn -0.1884343 0.9778168 0.09146998
vn -0.03203979 0.9994866 0.0001369511
vn 0.1611481 0.9798886 -0.1176847
vn -0.2040973 0.9519138 -0.2284826
vn -0.3494672 0.8882757 -0.2980587
vn -0.08698635 0.9961984 -0.004705634
vn -0.1177394 0.9856831 0.1206901
vn -0.08028748 0.9940469 0.07365207
vn -0.3715271 0.9163722 -0.1490959
vn -0.6368679 0.7458621 -0.1951638
vn -0.1887351 0.9819571 0.01180385
vn -0.04027421 0.9893211 0.1400776
vn -0.5933214 0.8012111 -0.07765631
vn -0.9341588 0.3553037 -0.0332668
vn -0.8460271 0.5308347 0.04952279
vn -0.3601212 0.9294745 0.07993668
vn -0.6185537 0.7715605 0.148613
vn -0.8443484 0.4909409 0.2145992
vn -0.1071988 0.9791054 0.1728033
vn -0.02543174 0.9908477 0.1325674
vn -0.5180144 0.8282464 0.2137029
vn -0.8037654 0.5510981 0.2241697
vn -0.289077 0.9369481 0.196374
vn -0.003303231 0.9886343 0.1503043
vn -0.5811237 0.8023639 0.1360419
vn -0.8366286 0.5337077 0.1233234
vn -0.3718219 0.9158202 0.1517293
vn -0.1429826 0.9763269 0.1623014
vn -0.6715916 0.7404315 0.02694177
vn -0.8702502 0.49186 0.02717243
vn -0.4575494 0.8884192 0.03687748
vn -0.2149599 0.9759136 0.03721278
vn 0.006002063 0.9992702 0.03772376
vn 0.04022903 0.9991862 0.002920114
vn -0.6740049 0.7370029 -0.05044002
vn -0.8689063 0.4925804 -0.04864403
vn -0.4665104 0.8833614 -0.04517442
vn -0.2074506 0.9774998 -0.03818719
vn 0.03636765 0.9983293 -0.04490069
vn -0.6518656 0.7547798 -0.0733394
vn -0.8418618 0.5324659 -0.08802631
vn -0.4535505 0.889923 -0.04825883
vn -0.1793596 0.9837769 -0.003622235
vn -0.6424762 0.7619979 -0.0811381
vn -0.8601281 0.4876429 -0.149613
vn -0.4563598 0.8886637 -0.04486102
vn -0.6925171 0.7096527 -0.1296652
vn -0.8856047 0.4175695 -0.2033221
vn 0.1464672 0.9866572 -0.07109801
vn 0.1011059 0.9941804 0.03718669
vn -0.2123024 0.9772006 0.002594718
vn -0.4705051 0.880468 -0.05831777
vn -0.7338652 0.6741304 -0.0836061
vn -0.9039848 0.4109877 -0.1179005
vn -0.7201325 0.6938177 0.005103679
vn -0.4672678 0.8840538 0.01047157
vn -0.5079917 0.8600042 -0.04834461
vn -0.2647576 0.9643138 0.001516693
vn -0.2807254 0.9596685 -0.01515046
vn -0.0967566 0.9951062 0.02004625
vn -0.2346968 0.9720659 -0.002314411
vn -0.0787034 0.9962947 0.03467767
vn -0.0280824 0.9990219 0.03415606
vn -0.03845916 0.9980729 0.0486979
vn -0.01660988 0.9984294 0.05350618
vn 0.02274358 0.9988682 0.04177557
vn 0.03513855 0.9970422 0.06835219
vn 0.02189951 0.9979305 0.0604563
vn 0.1444115 0.9889583 0.03326852
vn 0.01708804 0.9956496 0.09159616
vn 0.1574936 0.9770234 0.1436002
vn 0.122922 0.9908237 0.05620009
vn 0.3794329 0.9251567 -0.01076438
vn 0.05744789 0.9870172 0.1499897
vn 0.1923702 0.9809288 0.02779021
vn 0.3183258 0.9479342 0.009459377
vn 0.1461836 0.971092 0.1887076
vn 0.1035751 0.9797765 0.1712025
vn 0.2577549 0.9568436 0.134212
vn 0.1629353 0.9864517 0.01910894
vn 0.1038993 0.9743866 0.1994386
vn 0.1303552 0.9775271 0.165675
vn 0.1435005 0.9819964 -0.1228444
vn 0.09761338 0.9951474 0.01237647
vn 0.04096954 0.9970855 -0.06435847
vn 0.09577395 0.9953905 0.005016978
vn 0.08890145 0.9827013 -0.1624645
vn 0.06097078 0.9907391 -0.1213199
vn 0.08999418 0.9832192 -0.1586854
vn 0.3281923 0.944591 0.006134497
vn 0.3411878 0.9368004 -0.07743408
vn 0.6180011 0.7861767 0.0009457392
vn -0.9941792 0.04704217 0.09692704
vn -0.9511404 0.2657847 0.1571321
vn -0.9763545 -0.03014025 0.2140644
vn -0.9273307 0.2962516 0.228676
vn -0.960498 0.1607387 0.2271708
vn -0.9577497 -0.02167887 0.2867847
vn -0.9325305 0.2900864 0.2150278
vn -0.9643054 0.007643525 0.2646822
vn -0.9565246 -0.03371785 0.2896963
vn -0.9594478 0.1643273 0.2290338
vn -0.9482732 0.2926705 0.1229712
vn -0.9634709 -0.07846297 0.2560614
vn -0.9557113 -0.1340501 0.2620047
vn -0.9733738 0.002277823 0.2292122
vn -0.9682643 0.1414108 0.2060759
vn -0.962531 0.269689 0.02831637
vn -0.9522544 -0.1872119 0.2411709
vn -0.9060743 -0.3651111 0.21383
vn -0.9844894 0.1277685 0.1202329
vn -0.969305 -0.08461469 0.2308423
vn -0.9798149 0.003863889 0.1998696
vn -0.9578488 0.2848235 -0.03743159
vn -0.8998014 -0.3693793 0.232199
vn -0.729055 -0.6625896 0.1716214
vn -0.9908484 0.129462 0.03819787
vn -0.9925554 0.006728456 0.1216081
vn -0.9555498 -0.1702298 0.2407206
vn -0.9769207 -0.06485839 0.2035173
vn -0.9530282 0.280765 -0.1136145
vn -0.7143915 -0.6584972 0.2366989
vn -0.372944 -0.9221462 0.1027576
vn -0.3786007 -0.8983587 0.2227399
vn -0.9039971 -0.3548116 0.2385329
vn -0.9592528 -0.2048444 0.1946097
vn -0.9888934 -0.08224455 0.1237966
vn -0.7304931 -0.6272541 0.2700596
vn -0.9074357 -0.3768439 0.185874
vn -0.3639828 -0.8829321 0.2965592
vn -0.1479462 -0.9696649 0.1945812
vn -0.7784569 -0.5938472 0.2033479
vn -0.4307678 -0.865765 0.2547353
vn -0.9652435 -0.2241777 0.1343479
vn -0.9993457 -0.003765721 0.03597158
vn -0.821982 -0.5348635 0.1956185
vn -0.5391485 -0.7963701 0.2740684
vn -0.9176472 -0.3619202 0.164126
vn -0.9963415 -0.0764022 0.03829173
vn -0.9938039 0.1039688 -0.039299
vn -0.8433464 -0.5119709 0.1632562
vn -0.5656151 -0.7917882 0.2305451
vn -0.9321359 -0.3451627 0.1094776
vn -0.9791806 -0.1919875 0.06592576
vn -0.9973999 -0.04628451 -0.05523749
vn -0.988249 0.06275924 -0.1393743
vn -0.8309581 -0.5554479 -0.0314042
vn -0.4962896 -0.8680975 0.01017268
vn -0.9932475 -0.0953025 -0.06615743
vn -0.9348263 -0.3511217 -0.05304016
vn -0.9764651 -0.2043249 -0.06904576
vn -0.7628175 -0.6053925 -0.2271772
vn -0.4244129 -0.8794458 -0.2155197
vn -0.9859703 -0.07414282 -0.1495507
vn -0.9773657 -0.1327097 -0.1647556
vn -0.9001485 -0.3897763 -0.1944408
vn -0.957209 -0.2325714 -0.1722253
vn -0.7410871 -0.6174819 -0.2636399
vn -0.4597977 -0.848583 -0.2617116
vn -0.8819687 -0.4119063 -0.2290509
vn -0.9534249 -0.2258555 -0.1999255
vn -0.9734552 -0.1238682 -0.1924621
vn -0.9792731 -0.06533731 -0.1917163
vn -0.7625767 -0.5791843 -0.288136
vn -0.4074207 -0.8330761 -0.3741558
vn -0.8865646 -0.3864913 -0.2542198
vn -0.9552928 -0.2029398 -0.2150143
vn -0.9729959 -0.1088308 -0.2035556
vn -0.7502429 -0.5960738 -0.2860621
vn -0.3923431 -0.8391114 -0.3767742
vn -0.7253489 -0.6470844 -0.234842
vn -0.9239652 -0.3296838 -0.1938993
vn -0.8944041 -0.3715008 -0.2490549
vn -0.9611124 -0.1511908 -0.2310939
vn -0.9441146 -0.217115 -0.2480095
vn -0.9606453 -0.04947493 -0.2733366
vn -0.9639629 -0.09451398 -0.2486819
vn -0.9521919 -0.0786227 -0.2952102
vn -0.9672987 -0.03185046 -0.2516319
vn -0.9637355 -0.07738709 -0.2553922
vn -0.977276 -0.03794863 -0.2085466
vn -0.971826 0.08880987 -0.2183279
vn -0.9867247 0.069135 -0.1469517
vn -0.9697301 0.1113413 -0.2173171
vn -0.9618685 0.222036 -0.159715
vn -0.9325716 0.3575657 -0.04956647
vn -0.9775648 0.07116642 -0.1982486
vn -0.9456051 0.2409778 -0.2185422
vn -0.9541875 0.2273701 -0.1944972
vn -0.1444539 -0.9862323 0.08049233
vn -0.170668 -0.980813 0.09422513
vn -0.1118297 -0.9861012 0.1228768
vn 0.02528981 -0.9709656 0.2378788
vn 0.1543458 -0.9815753 0.1126381
vn 0.01397405 -0.9629611 0.269278
vn 0.252237 -0.9317909 0.2610407
vn -0.09629491 -0.9437246 0.3164036
vn 0.2222471 -0.9236733 0.312144
vn -0.1025858 -0.9617732 0.2539062
vn 0.273192 -0.9378756 0.2139055
vn 0.01097902 -0.9983216 0.05686417
vn 0.3137388 -0.9455072 0.08708652
vn 0.01299034 -0.9924072 -0.122308
vn 0.2707696 -0.9620084 -0.03498077
vn -0.03058146 -0.9701619 -0.240522
vn 0.2502732 -0.9464043 -0.2041623
vn 0.0157797 -0.9224282 -0.385846
vn 0.2182256 -0.9177872 -0.3317291
vn -0.1026422 -0.9180987 -0.3828305
vn 0.09986535 -0.9303676 -0.3527649
vn -0.3882148 -0.8728052 -0.2958048
vn -0.1117986 -0.933524 -0.3406377
vn -0.03787917 -0.9600199 -0.277357
vn 0.6881714 -0.7048131 0.1722168
vn 0.6565222 -0.7176507 0.2322845
vn 0.6597174 -0.6938668 0.288655
vn 0.6870612 -0.691092 0.2243634
vn 0.6826694 -0.7134629 0.157902
vn 0.9351025 -0.3310414 -0.1264714
vn 0.8297473 -0.5369753 -0.1522401
vn 0.9245914 -0.2570732 0.2811478
vn 0.8817985 -0.3897316 0.265595
vn 0.9630058 -0.02904958 0.2679102
vn 0.950173 -0.147411 0.2746659
vn 0.9548523 0.1447799 0.2594144
vn 0.9627823 0.05268149 0.2650942
vn 0.9211221 0.3068796 0.2394976
vn 0.9430466 0.21678 0.2523281
vn 0.9104279 0.3538723 0.2142325
vn 0.9837821 -0.1407651 -0.1111667
vn 0.9946541 0.01063656 -0.1027135
vn 0.590593 0.8065091 0.02725588
vn 0.609879 0.7923914 0.01278589
vn 0.5290163 0.8486013 -0.00418698
vn 0.5602731 0.8280818 0.01935016
vn 0.9848547 0.1475612 -0.09103273
vn 0.9654284 0.2476494 -0.08134952
vn 0.9475055 0.3139324 -0.06066147
vn 0.8815197 0.4710076 -0.03278548
vn 0.804196 0.5939178 -0.02303154
vn 0.5123523 0.857762 -0.04170747

usemtl Stone
f 156/156/156 150/150/150 155/155/155
f 160/160/160 155/155/155 162/162/162
f 164/164/164 161/161/161 160/160/160
f 253/253/253 248/248/248 247/247/247
f 1/345/1 343/343/343 345/347/345
f 5/348/5 1/345/1 345/347/345
f 47/372/47 361/371/361 364/375/364
f 60/376/60 47/372/47 364/375/364
f 366/378/366 365/377/365 53/53/53
f 365/377/365 45/45/45 53/53/53
f 365/377/365 52/52/52 45/45/45
f 53/53/53 55/55/55 367/379/367
f 366/378/366 53/53/53 367/379/367
f 368/380/368 367/379/367 55/55/55
f 55/55/55 71/71/71 369/381/369
f 368/380/368 55/55/55 369/381/369
f 83/83/83 369/381/369 71/71/71
f 81/81/81 370/382/370 371/383/371
f 82/82/82 81/81/81 371/383/371
f 82/82/82 371/383/371 83/83/83
f 92/92/92 50/50/50 52/52/52
f 92/92/92 52/52/52 373/385/373
f 372/384/372 92/92/92 373/385/373
f 375/387/375 92/92/92 372/384/372
f 99/99/99 92/92/92 375/387/375
f 374/386/374 99/99/99 375/387/375
f 377/389/377 106/106/106 99/99/99
f 377/389/377 376/388/376 106/106/106
f 374/386/374 377/389/377 99/99/99
f 109/109/109 106/106/106 379/391/379
f 378/390/378 109/109/109 379/391/379
f 376/388/376 379/391/379 106/106/106
f 107/107/107 109/109/109 380/392/380
f 110/110/110 107/107/107 380/392/380
f 378/390/378 380/392/380 109/109/109
f 81/81/81 381/393/381 370/382/370
f 112/112/112 381/393/381 81/81/81
f 382/394/382 381/393/381 112/112/112
f 144/144/144 384/396/384 383/395/383
f 384/396/384 111/111/111 110/110/110
f 384/396/384 144/144/144 111/111/111
f 242/242/242 386/398/386 385/397/385
f 386/398/386 144/144/144 383/395/383
f 386/398/386 242/242/242 144/144/144
f 112/112/112 387/399/387 382/394/382
f 114/114/114 387/399/387 112/112/112
f 388/400/388 387/399/387 114/114/114
f 114/114/114 389/401/389 388/400/388
f 116/116/116 389/401/389 114/114/114
f 390/402/390 389/401/389 116/116/116
f 116/116/116 391/403/391 390/402/390
f 116/116/116 243/243/243 391/403/391
f 118/118/118 243/243/243 116/116/116
f 241/241/241 392/404/392 243/243/243
f 392/404/392 242/242/242 385/397/385
f 392/404/392 241/241/241 242/242/242
f 3/3/3 2/2/2 1/1/1
f 1/1/1 4/4/4 3/3/3
f 4/4/4 1/1/1 5/5/5
f 5/5/5 7/7/7 4/4/4
f 6/6/6 3/3/3 4/4/4
f 4/4/4 9/9/9 6/6/6
f 7/7/7 5/5/5 8/8/8
f 8/8/8 11/11/11 7/7/7
f 9/9/9 4/4/4 7/7/7
f 7/7/7 15/15/15 9/9/9
f 10/10/10 6/6/6 9/9/9
f 9/9/9 13/13/13 10/10/10
f 11/11/11 8/8/8 12/12/12
f 12/12/12 16/16/16 11/11/11
f 14/14/14 10/10/10 13/13/13
f 13/13/13 18/18/18 14/14/14
f 15/15/15 7/7/7 11/11/11
f 11/11/11 22/22/22 15/15/15
f 13/13/13 9/9/9 15/15/15
f 15/15/15 21/21/21 13/13/13
f 16/16/16 12/12/12 17/17/17
f 17/17/17 25/25/25 16/16/16
f 19/19/19 14/14/14 18/18/18
f 18/18/18 20/20/20 19/19/19
f 18/18/18 13/13/13 21/21/21
f 21/21/21 23/23/23 18/18/18
f 22/22/22 11/11/11 16/16/16
f 16/16/16 30/30/30 22/22/22
f 21/21/21 15/15/15 22/22/22
f 22/22/22 27/27/27 21/21/21
f 20/20/20 18/18/18 23/23/23
f 23/23/23 24/24/24 20/20/20
f 25/25/25 17/17/17 26/26/26
f 26/26/26 31/31/31 25/25/25
f 23/23/23 21/21/21 27/27/27
f 27/27/27 28/28/28 23/23/23
f 24/24/24 23/23/23 28/28/28
f 28/28/28 29/29/29 24/24/24
f 27/27/27 22/22/22 30/30/30
f 30/30/30 33/33/33 27/27/27
f 30/30/30 16/16/16 25/25/25
f 25/25/25 34/34/34 30/30/30
f 31/31/31 26/26/26 32/32/32
f 32/32/32 35/35/35 31/31/31
f 28/28/28 27/27/27 33/33/33
f 33/33/33 37/37/37 28/28/28
f 34/34/34 25/25/25 31/31/31
f 31/31/31 39/39/39 34/34/34
f 33/33/33 30/30/30 34/34/34
f 34/34/34 38/38/38 33/33/33
f 35/35/35 32/32/32 36/36/36
f 36/36/36 40/40/40 35/35/35
f 29/29/29 28/28/28 37/37/37
f 37/37/37 45/45/45 29/29/29
f 37/37/37 33/33/33 38/38/38
f 38/38/38 44/44/44 37/37/37
f 39/39/39 31/31/31 35/35/35
f 35/35/35 42/42/42 39/39/39
f 38/38/38 34/34/34 39/39/39
f 39/39/39 43/43/43 38/38/38
f 40/40/40 36/36/36 41/41/41
f 41/41/41 46/46/46 40/40/40
f 42/42/42 35/35/35 40/40/40
f 40/40/40 48/48/48 42/42/42
f 43/43/43 39/39/39 42/42/42
f 42/42/42 49/49/49 43/43/43
f 44/44/44 38/38/38 43/43/43
f 43/43/43 54/54/54 44/44/44
f 45/45/45 37/37/37 44/44/44
f 44/44/44 53/53/53 45/45/45
f 46/46/46 41/41/41 47/47/47
f 47/47/47 59/59/59 46/46/46
f 48/48/48 40/40/40 46/46/46
f 46/46/46 58/58/58 48/48/48
f 49/49/49 42/42/42 48/48/48
f 48/48/48 57/57/57 49/49/49
f 50/50/50 29/29/29 45/45/45
f 45/45/45 52/52/52 50/50/50
f 29/29/29 50/50/50 51/51/51
f 51/51/51 24/24/24 29/29/29
f 53/53/53 44/44/44 54/54/54
f 54/54/54 55/55/55 53/53/53
f 54/54/54 43/43/43 49/49/49
f 49/49/49 56/56/56 54/54/54
f 55/55/55 54/54/54 56/56/56
f 56/56/56 71/71/71 55/55/55
f 56/56/56 49/49/49 57/57/57
f 57/57/57 67/67/67 56/56/56
f 57/57/57 48/48/48 58/58/58
f 58/58/58 64/64/64 57/57/57
f 58/58/58 46/46/46 59/59/59
f 59/59/59 62/62/62 58/58/58
f 59/59/59 47/47/47 60/60/60
f 60/60/60 61/61/61 59/59/59
f 62/62/62 59/59/59 61/61/61
f 61/61/61 63/63/63 62/62/62
f 64/64/64 58/58/58 62/62/62
f 62/62/62 65/65/65 64/64/64
f 65/65/65 62/62/62 63/63/63
f 63/63/63 66/66/66 65/65/65
f 67/67/67 57/57/57 64/64/64
f 64/64/64 70/70/70 67/67/67
f 68/68/68 65/65/65 66/66/66
f 66/66/66 69/69/69 68/68/68
f 70/70/70 64/64/64 65/65/65
f 65/65/65 68/68/68 70/70/70
f 71/71/71 56/56/56 67/67/67
f 67/67/67 75/75/75 71/71/71
f 72/72/72 68/68/68 69/69/69
f 69/69/69 73/73/73 72/72/72
f 74/74/74 70/70/70 68/68/68
f 68/68/68 72/72/72 74/74/74
f 75/75/75 67/67/67 70/70/70
f 70/70/70 74/74/74 75/75/75
f 76/76/76 72/72/72 73/73/73
f 73/73/73 77/77/77 76/76/76
f 78/78/78 76/76/76 77/77/77
f 77/77/77 122/122/122 78/78/78
f 76/76/76 78/78/78 79/79/79
f 79/79/79 80/80/80 76/76/76
f 72/72/72 76/76/76 80/80/80
f 80/80/80 74/74/74 72/72/72
f 80/80/80 79/79/79 81/81/81
f 81/81/81 82/82/82 80/80/80
f 74/74/74 80/80/80 82/82/82
f 82/82/82 75/75/75 74/74/74
f 83/83/83 71/71/71 75/75/75
f 75/75/75 82/82/82 83/83/83
f 84/84/84 19/19/19 20/20/20
f 20/20/20 85/85/85 84/84/84
f 85/85/85 20/20/20 24/24/24
f 24/24/24 51/51/51 85/85/85
f 86/86/86 84/84/84 85/85/85
f 85/85/85 87/87/87 86/86/86
f 87/87/87 85/85/85 51/51/51
f 51/51/51 89/89/89 87/87/87
f 88/88/88 86/86/86 87/87/87
f 87/87/87 90/90/90 88/88/88
f 89/89/89 51/51/51 50/50/50
f 50/50/50 92/92/92 89/89/89
f 90/90/90 87/87/87 89/89/89
f 89/89/89 95/95/95 90/90/90
f 91/91/91 88/88/88 90/90/90
f 90/90/90 93/93/93 91/91/91
f 94/94/94 91/91/91 93/93/93
f 93/93/93 96/96/96 94/94/94
f 95/95/95 89/89/89 92/92/92
f 92/92/92 99/99/99 95/95/95
f 93/93/93 90/90/90 95/95/95
f 95/95/95 98/98/98 93/93/93
f 97/97/97 94/94/94 96/96/96
f 96/96/96 100/100/100 97/97/97
f 96/96/96 93/93/93 98/98/98
f 98/98/98 103/103/103 96/96/96
f 98/98/98 95/95/95 99/99/99
f 99/99/99 106/106/106 98/98/98
f 101/101/101 97/97/97 100/100/100
f 100/100/100 102/102/102 101/101/101
f 100/100/100 96/96/96 103/103/103
f 103/103/103 104/104/104 100/100/100
f 102/102/102 100/100/100 104/104/104
f 104/104/104 105/105/105 102/102/102
f 103/103/103 98/98/98 106/106/106
f 106/106/106 109/109/109 103/103/103
f 105/105/105 104/104/104 107/107/107
f 107/107/107 108/108/108 105/105/105
f 104/104/104 103/103/103 109/109/109
f 109/109/109 107/107/107 104/104/104
f 108/108/108 107/107/107 110/110/110
f 110/110/110 111/111/111 108/108/108
f 112/112/112 81/81/81 79/79/79
f 79/79/79 113/113/113 112/112/112
f 113/113/113 79/79/79 78/78/78
f 78/78/78 120/120/120 113/113/113
f 114/114/114 112/112/112 113/113/113
f 113/113/113 115/115/115 114/114/114
f 116/116/116 114/114/114 115/115/115
f 115/115/115 117/117/117 116/116/116
f 118/118/118 116/116/116 117/117/117
f 117/117/117 119/119/119 118/118/118
f 115/115/115 113/113/113 120/120/120
f 120/120/120 121/121/121 115/115/115
f 117/117/117 115/115/115 121/121/121
f 121/121/121 125/125/125 117/117/117
f 120/120/120 78/78/78 122/122/122
f 122/122/122 123/123/123 120/120/120
f 121/121/121 120/120/120 123/123/123
f 123/123/123 124/124/124 121/121/121
f 125/125/125 121/121/121 124/124/124
f 124/124/124 126/126/126 125/125/125
f 119/119/119 117/117/117 125/125/125
f 125/125/125 127/127/127 119/119/119
f 127/127/127 125/125/125 126/126/126
f 126/126/126 128/128/128 127/127/127
f 129/129/129 119/119/119 127/127/127
f 127/127/127 131/131/131 129/129/129
f 119/119/119 129/129/129 130/130/130
f 130/130/130 118/118/118 119/119/119
f 131/131/131 127/127/127 128/128/128
f 128/128/128 132/132/132 131/131/131
f 133/133/133 101/101/101 102/102/102
f 102/102/102 134/134/134 133/133/133
f 134/134/134 102/102/102 105/105/105
f 105/105/105 136/136/136 134/134/134
f 135/135/135 133/133/133 134/134/134
f 134/134/134 137/137/137 135/135/135
f 136/136/136 105/105/105 108/108/108
f 108/108/108 139/139/139 136/136/136
f 137/137/137 134/134/134 136/136/136
f 136/136/136 142/142/142 137/137/137
f 138/138/138 135/135/135 137/137/137
f 137/137/137 140/140/140 138/138/138
f 139/139/139 108/108/108 111/111/111
f 111/111/111 143/143/143 139/139/139
f 141/141/141 138/138/138 140/140/140
f 140/140/140 145/145/145 141/141/141
f 142/142/142 136/136/136 139/139/139
f 139/139/139 148/148/148 142/142/142
f 140/140/140 137/137/137 142/142/142
f 142/142/142 147/147/147 140/140/140
f 143/143/143 111/111/111 144/144/144
f 144/144/144 154/154/154 143/143/143
f 146/146/146 141/141/141 145/145/145
f 145/145/145 149/149/149 146/146/146
f 145/145/145 140/140/140 147/147/147
f 147/147/147 151/151/151 145/145/145
f 148/148/148 139/139/139 143/143/143
f 143/143/143 153/153/153 148/148/148
f 147/147/147 142/142/142 148/148/148
f 148/148/148 152/152/152 147/147/147
f 150/150/150 146/146/146 149/149/149
f 149/149/149 155/155/155 150/150/150
f 149/149/149 145/145/145 151/151/151
f 151/151/151 157/157/157 149/149/149
f 151/151/151 147/147/147 152/152/152
f 152/152/152 158/158/158 151/151/151
f 152/152/152 148/148/148 153/153/153
f 153/153/153 159/159/159 152/152/152
f 153/153/153 143/143/143 154/154/154
f 154/154/154 239/239/239 153/153/153
f 155/155/155 149/149/149 157/157/157
f 157/157/157 162/162/162 155/155/155
f 157/157/157 151/151/151 158/158/158
f 158/158/158 163/163/163 157/157/157
f 158/158/158 152/152/152 159/159/159
f 159/159/159 171/171/171 158/158/158
f 161/161/161 156/156/156 155/155/155
f 155/155/155 160/160/160 161/161/161
f 162/162/162 157/157/157 163/163/163
f 163/163/163 170/170/170 162/162/162
f 165/165/165 161/161/161 164/164/164
f 164/164/164 166/166/166 165/165/165
f 164/164/164 160/160/160 162/162/162
f 162/162/162 167/167/167 164/164/164
f 168/168/168 166/166/166 164/164/164
f 164/164/164 167/167/167 168/168/168
f 245/245/245 166/166/166 168/168/168
f 168/168/168 169/169/169 245/245/245
f 167/167/167 162/162/162 170/170/170
f 170/170/170 174/174/174 167/167/167
f 163/163/163 158/158/158 171/171/171
f 171/171/171 175/175/175 163/163/163
f 169/169/169 168/168/168 172/172/172
f 172/172/172 173/173/173 169/169/169
f 168/168/168 167/167/167 174/174/174
f 174/174/174 172/172/172 168/168/168
f 170/170/170 163/163/163 175/175/175
f 175/175/175 179/179/179 170/170/170
f 173/173/173 172/172/172 176/176/176
f 176/176/176 177/177/177 173/173/173
f 172/172/172 174/174/174 178/178/178
f 178/178/178 176/176/176 172/172/172
f 174/174/174 170/170/170 179/179/179
f 179/179/179 178/178/178 174/174/174
f 177/177/177 176/176/176 180/180/180
f 180/180/180 181/181/181 177/177/177
f 176/176/176 178/178/178 182/182/182
f 182/182/182 180/180/180 176/176/176
f 178/178/178 179/179/179 183/183/183
f 183/183/183 182/182/182 178/178/178
f 179/179/179 175/175/175 184/184/184
f 184/184/184 183/183/183 179/179/179
f 175/175/175 171/171/171 185/185/185
f 185/185/185 184/184/184 175/175/175
f 181/181/181 180/180/180 186/186/186
f 186/186/186 187/187/187 181/181/181
f 180/180/180 182/182/182 188/188/188
f 188/188/188 186/186/186 180/180/180
f 182/182/182 183/183/183 189/189/189
f 189/189/189 188/188/188 182/182/182
f 183/183/183 184/184/184 190/190/190
f 190/190/190 189/189/189 183/183/183
f 187/187/187 186/186/186 191/191/191
f 191/191/191 192/192/192 187/187/187
f 186/186/186 188/188/188 193/193/193
f 193/193/193 191/191/191 186/186/186
f 188/188/188 189/189/189 194/194/194
f 194/194/194 193/193/193 188/188/188
f 192/192/192 191/191/191 195/195/195
f 195/195/195 196/196/196 192/192/192
f 191/191/191 193/193/193 197/197/197
f 197/197/197 195/195/195 191/191/191
f 196/196/196 195/195/195 198/198/198
f 198/198/198 199/199/199 196/196/196
f 200/200/200 190/190/190 184/184/184
f 184/184/184 185/185/185 200/200/200
f 189/189/189 190/190/190 201/201/201
f 201/201/201 194/194/194 189/189/189
f 193/193/193 194/194/194 202/202/202
f 202/202/202 197/197/197 193/193/193
f 195/195/195 197/197/197 203/203/203
f 203/203/203 198/198/198 195/195/195
f 199/199/199 198/198/198 204/204/204
f 204/204/204 205/205/205 199/199/199
f 205/205/205 204/204/204 206/206/206
f 206/206/206 337/337/337 205/205/205
f 207/207/207 206/206/206 204/204/204
f 204/204/204 208/208/208 207/207/207
f 208/208/208 204/204/204 198/198/198
f 198/198/198 203/203/203 208/208/208
f 209/209/209 207/207/207 208/208/208
f 208/208/208 210/210/210 209/209/209
f 210/210/210 208/208/208 203/203/203
f 203/203/203 212/212/212 210/210/210
f 211/211/211 209/209/209 210/210/210
f 210/210/210 213/213/213 211/211/211
f 212/212/212 203/203/203 197/197/197
f 197/197/197 202/202/202 212/212/212
f 213/213/213 210/210/210 212/212/212
f 212/212/212 215/215/215 213/213/213
f 214/214/214 211/211/211 213/213/213
f 213/213/213 216/216/216 214/214/214
f 215/215/215 212/212/212 202/202/202
f 202/202/202 218/218/218 215/215/215
f 216/216/216 213/213/213 215/215/215
f 215/215/215 221/221/221 216/216/216
f 217/217/217 214/214/214 216/216/216
f 216/216/216 219/219/219 217/217/217
f 218/218/218 202/202/202 194/194/194
f 194/194/194 201/201/201 218/218/218
f 220/220/220 217/217/217 219/219/219
f 219/219/219 223/223/223 220/220/220
f 221/221/221 215/215/215 218/218/218
f 218/218/218 222/222/222 221/221/221
f 219/219/219 216/216/216 221/221/221
f 221/221/221 225/225/225 219/219/219
f 222/222/222 218/218/218 201/201/201
f 201/201/201 226/226/226 222/222/222
f 224/224/224 220/220/220 223/223/223
f 223/223/223 227/227/227 224/224/224
f 225/225/225 221/221/221 222/222/222
f 222/222/222 228/228/228 225/225/225
f 223/223/223 219/219/219 225/225/225
f 225/225/225 229/229/229 223/223/223
f 226/226/226 201/201/201 190/190/190
f 190/190/190 200/200/200 226/226/226
f 132/132/132 224/224/224 227/227/227
f 227/227/227 131/131/131 132/132/132
f 228/228/228 222/222/222 226/226/226
f 226/226/226 231/231/231 228/228/228
f 227/227/227 223/223/223 229/229/229
f 229/229/229 230/230/230 227/227/227
f 229/229/229 225/225/225 228/228/228
f 228/228/228 232/232/232 229/229/229
f 131/131/131 227/227/227 230/230/230
f 230/230/230 129/129/129 131/131/131
f 231/231/231 226/226/226 200/200/200
f 200/200/200 234/234/234 231/231/231
f 230/230/230 229/229/229 232/232/232
f 232/232/232 233/233/233 230/230/230
f 232/232/232 228/228/228 231/231/231
f 231/231/231 235/235/235 232/232/232
f 129/129/129 230/230/230 233/233/233
f 233/233/233 130/130/130 129/129/129
f 234/234/234 200/200/200 185/185/185
f 185/185/185 236/236/236 234/234/234
f 233/233/233 232/232/232 235/235/235
f 235/235/235 237/237/237 233/233/233
f 235/235/235 231/231/231 234/234/234
f 234/234/234 238/238/238 235/235/235
f 236/236/236 185/185/185 171/171/171
f 171/171/171 159/159/159 236/236/236
f 130/130/130 233/233/233 237/237/237
f 237/237/237 241/241/241 130/130/130
f 238/238/238 234/234/234 236/236/236
f 236/236/236 239/239/239 238/238/238
f 237/237/237 235/235/235 238/238/238
f 238/238/238 240/240/240 237/237/237
f 239/239/239 236/236/236 159/159/159
f 159/159/159 153/153/153 239/239/239
f 240/240/240 238/238/238 239/239/239
f 239/239/239 154/154/154 240/240/240
f 241/241/241 237/237/237 240/240/240
f 240/240/240 242/242/242 241/241/241
f 242/242/242 240/240/240 154/154/154
f 154/154/154 144/144/144 242/242/242
f 241/241/241 243/243/243 118/118/118
f 118/118/118 130/130/130 241/241/241
f 244/244/244 165/165/165 166/166/166
f 166/166/166 245/245/245 244/244/244
f 246/246/246 244/244/244 245/245/245
f 245/245/245 248/248/248 246/246/246
f 248/248/248 245/245/245 169/169/169
f 169/169/169 247/247/247 248/248/248
f 247/247/247 169/169/169 173/173/173
f 173/173/173 250/250/250 247/247/247
f 249/249/249 246/246/246 248/248/248
f 248/248/248 251/251/251 249/249/249
f 250/250/250 173/173/173 177/177/177
f 177/177/177 254/254/254 250/250/250
f 252/252/252 249/249/249 251/251/251
f 251/251/251 255/255/255 252/252/252
f 253/253/253 247/247/247 250/250/250
f 250/250/250 258/258/258 253/253/253
f 251/251/251 248/248/248 253/253/253
f 253/253/253 257/257/257 251/251/251
f 254/254/254 177/177/177 181/181/181
f 181/181/181 259/259/259 254/254/254
f 256/256/256 252/252/252 255/255/255
f 255/255/255 260/260/260 256/256/256
f 255/255/255 251/251/251 257/257/257
f 257/257/257 263/263/263 255/255/255
f 258/258/258 250/250/250 254/254/254
f 254/254/254 262/262/262 258/258/258
f 257/257/257 253/253/253 258/258/258
f 258/258/258 264/264/264 257/257/257
f 259/259/259 181/181/181 187/187/187
f 187/187/187 265/265/265 259/259/259
f 261/261/261 256/256/256 260/260/260
f 260/260/260 266/266/266 261/261/261
f 262/262/262 254/254/254 259/259/259
f 259/259/259 268/268/268 262/262/262
f 260/260/260 255/255/255 263/263/263
f 263/263/263 270/270/270 260/260/260
f 264/264/264 258/258/258 262/262/262
f 262/262/262 269/269/269 264/264/264
f 263/263/263 257/257/257 264/264/264
f 264/264/264 271/271/271 263/263/263
f 265/265/265 187/187/187 192/192/192
f 192/192/192 272/272/272 265/265/265
f 267/267/267 261/261/261 266/266/266
f 266/266/266 273/273/273 267/267/267
f 268/268/268 259/259/259 265/265/265
f 265/265/265 291/291/291 268/268/268
f 269/269/269 262/262/262 268/268/268
f 268/268/268 286/286/286 269/269/269
f 266/266/266 260/260/260 270/270/270
f 270/270/270 276/276/276 266/266/266
f 271/271/271 264/264/264 269/269/269
f 269/269/269 278/278/278 271/271/271
f 270/270/270 263/263/263 271/271/271
f 271/271/271 277/277/277 270/270/270
f 272/272/272 192/192/192 196/196/196
f 196/196/196 340/340/340 272/272/272
f 274/274/274 267/267/267 273/273/273
f 273/273/273 275/275/275 274/274/274
f 273/273/273 266/266/266 276/276/276
f 276/276/276 279/279/279 273/273/273
f 276/276/276 270/270/270 277/277/277
f 277/277/277 280/280/280 276/276/276
f 277/277/277 271/271/271 278/278/278
f 278/278/278 285/285/285 277/277/277
f 275/275/275 273/273/273 279/279/279
f 279/279/279 281/281/281 275/275/275
f 279/279/279 276/276/276 280/280/280
f 280/280/280 283/283/283 279/279/279
f 282/282/282 275/275/275 281/281/281
f 281/281/281 344/346/344 282/282/282
f 281/281/281 279/279/279 283/283/283
f 283/283/283 284/284/284 281/281/281
f 280/280/280 277/277/277 285/285/285
f 285/285/285 289/289/289 280/280/280
f 278/278/278 269/269/269 286/286/286
f 286/286/286 290/290/290 278/278/278
f 284/284/284 283/283/283 287/287/287
f 287/287/287 288/288/288 284/284/284
f 283/283/283 280/280/280 289/289/289
f 289/289/289 287/287/287 283/283/283
f 285/285/285 278/278/278 290/290/290
f 290/290/290 295/295/295 285/285/285
f 286/286/286 268/268/268 291/291/291
f 291/291/291 296/296/296 286/286/286
f 291/291/291 265/265/265 272/272/272
f 272/272/272 297/297/297 291/291/291
f 288/288/288 287/287/287 292/292/292
f 292/292/292 293/293/293 288/288/288
f 287/287/287 289/289/289 294/294/294
f 294/294/294 292/292/292 287/287/287
f 289/289/289 285/285/285 295/295/295
f 295/295/295 294/294/294 289/289/289
f 290/290/290 286/286/286 296/296/296
f 296/296/296 300/300/300 290/290/290
f 296/296/296 291/291/291 297/297/297
f 297/297/297 305/305/305 296/296/296
f 293/293/293 292/292/292 298/298/298
f 298/298/298 299/299/299 293/293/293
f 295/295/295 290/290/290 300/300/300
f 300/300/300 302/302/302 295/295/295
f 292/292/292 294/294/294 301/301/301
f 301/301/301 298/298/298 292/292/292
f 294/294/294 295/295/295 302/302/302
f 302/302/302 301/301/301 294/294/294
f 299/299/299 298/298/298 303/303/303
f 303/303/303 304/304/304 299/299/299
f 300/300/300 296/296/296 305/305/305
f 305/305/305 306/306/306 300/300/300
f 302/302/302 300/300/300 306/306/306
f 306/306/306 308/308/308 302/302/302
f 298/298/298 301/301/301 307/307/307
f 307/307/307 303/303/303 298/298/298
f 301/301/301 302/302/302 308/308/308
f 308/308/308 307/307/307 301/301/301
f 304/304/304 303/303/303 309/309/309
f 309/309/309 310/310/310 304/304/304
f 303/303/303 307/307/307 311/311/311
f 311/311/311 309/309/309 303/303/303
f 307/307/307 308/308/308 312/312/312
f 312/312/312 311/311/311 307/307/307
f 308/308/308 306/306/306 313/313/313
f 313/313/313 312/312/312 308/308/308
f 306/306/306 305/305/305 314/314/314
f 314/314/314 313/313/313 306/306/306
f 310/310/310 309/309/309 315/315/315
f 315/315/315 316/316/316 310/310/310
f 309/309/309 311/311/311 317/317/317
f 317/317/317 315/315/315 309/309/309
f 311/311/311 312/312/312 318/318/318
f 318/318/318 317/317/317 311/311/311
f 312/312/312 313/313/313 319/319/319
f 319/319/319 318/318/318 312/312/312
f 316/316/316 315/315/315 320/320/320
f 320/320/320 321/321/321 316/316/316
f 321/321/321 320/320/320 322/322/322
f 322/322/322 362/373/362 321/321/321
f 323/323/323 322/322/322 320/320/320
f 320/320/320 324/324/324 323/323/323
f 324/324/324 320/320/320 315/315/315
f 315/315/315 317/317/317 324/324/324
f 325/325/325 323/323/323 324/324/324
f 324/324/324 326/326/326 325/325/325
f 326/326/326 324/324/324 317/317/317
f 317/317/317 318/318/318 326/326/326
f 327/327/327 325/325/325 326/326/326
f 326/326/326 328/328/328 327/327/327
f 328/328/328 326/326/326 318/318/318
f 318/318/318 319/319/319 328/328/328
f 329/329/329 327/327/327 328/328/328
f 328/328/328 330/330/330 329/329/329
f 330/330/330 328/328/328 319/319/319
f 319/319/319 332/332/332 330/330/330
f 331/331/331 329/329/329 330/330/330
f 330/330/330 333/333/333 331/331/331
f 332/332/332 319/319/319 313/313/313
f 313/313/313 314/314/314 332/332/332
f 333/333/333 330/330/330 332/332/332
f 332/332/332 335/335/335 333/333/333
f 334/334/334 331/331/331 333/333/333
f 333/333/333 336/336/336 334/334/334
f 335/335/335 332/332/332 314/314/314
f 314/314/314 338/338/338 335/335/335
f 336/336/336 333/333/333 335/335/335
f 335/335/335 339/339/339 336/336/336
f 337/337/337 334/334/334 336/336/336
f 336/336/336 205/205/205 337/337/337
f 338/338/338 314/314/314 305/305/305
f 305/305/305 297/297/297 338/338/338
f 205/205/205 336/336/336 339/339/339
f 339/339/339 199/199/199 205/205/205
f 339/339/339 335/335/335 338/338/338
f 338/338/338 340/340/340 339/339/339
f 340/340/340 338/338/338 297/297/297
f 297/297/297 272/272/272 340/340/340
f 199/199/199 339/339/339 340/340/340
f 340/340/340 196/196/196 199/199/199
f 341/341/341 274/274/274 275/275/275
f 275/275/275 282/282/282 341/341/341
f 342/342/342 341/341/341 282/282/282
f 282/282/282 343/343/343 342/342/342
f 2/344/2 342/342/342 343/343/343
f 343/343/343 1/345/1 2/344/2
f 343/343/343 282/282/282 344/346/344
f 344/346/344 345/347/345 343/343/343
f 344/346/344 281/281/281 284/284/284
f 284/284/284 346/349/346 344/346/344
f 345/347/345 344/346/344 346/349/346
f 346/349/346 347/350/347 345/347/345
f 346/349/346 284/284/284 288/288/288
f 288/288/288 348/352/348 346/349/346
f 5/348/5 345/347/345 347/350/347
f 347/350/347 8/351/8 5/348/5
f 347/350/347 346/349/346 348/352/348
f 348/352/348 349/353/349 347/350/347
f 348/352/348 288/288/288 293/293/293
f 293/293/293 350/355/350 348/352/348
f 8/351/8 347/350/347 349/353/349
f 349/353/349 12/354/12 8/351/8
f 349/353/349 348/352/348 350/355/350
f 350/355/350 351/356/351 349/353/349
f 350/355/350 293/293/293 299/299/299
f 299/299/299 352/358/352 350/355/350
f 12/354/12 349/353/349 351/356/351
f 351/356/351 17/357/17 12/354/12
f 351/356/351 350/355/350 352/358/352
f 352/358/352 353/359/353 351/356/351
f 352/358/352 299/299/299 304/304/304
f 304/304/304 354/361/354 352/358/352
f 17/357/17 351/356/351 353/359/353
f 353/359/353 26/360/26 17/357/17
f 353/359/353 352/358/352 354/361/354
f 354/361/354 355/362/355 353/359/353
f 354/361/354 304/304/304 310/310/310
f 310/310/310 356/364/356 354/361/354
f 26/360/26 353/359/353 355/362/355
f 355/362/355 32/363/32 26/360/26
f 355/362/355 354/361/354 356/364/356
f 356/364/356 357/365/357 355/362/355
f 356/364/356 310/310/310 316/316/316
f 316/316/316 358/367/358 356/364/356
f 32/363/32 355/362/355 357/365/357
f 357/365/357 36/366/36 32/363/32
f 357/365/357 356/364/356 358/367/358
f 358/367/358 359/368/359 357/365/357
f 358/367/358 316/316/316 321/321/321
f 321/321/321 360/370/360 358/367/358
f 36/366/36 357/365/357 359/368/359
f 359/368/359 41/369/41 36/366/36
f 359/368/359 358/367/358 360/370/360
f 360/370/360 361/371/361 359/368/359
f 41/369/41 359/368/359 361/371/361
f 361/371/361 47/372/47 41/369/41
f 360/370/360 321/321/321 362/373/362
f 362/373/362 363/374/363 360/370/360
f 361/371/361 360/370/360 363/374/363
f 363/374/363 364/375/364 361/371/361

